<svg width="11" height="8" viewBox="0 0 11 8" fill="none" xmlns="http://www.w3.org/2000/svg">
<path d="M0.587358 8V5.8267C0.587358 5.2017 0.704546 4.55185 0.938921 3.87713C1.1804 3.19531 1.5071 2.55256 1.91903 1.94886C2.33807 1.33807 2.80682 0.823153 3.32528 0.404118L5.11506 1.56534C4.69602 2.19744 4.34446 2.85795 4.06037 3.54688C3.78338 4.22869 3.64844 4.98153 3.65554 5.8054V8H0.587358ZM5.98864 8V5.8267C5.98864 5.2017 6.10582 4.55185 6.3402 3.87713C6.58168 3.19531 6.90838 2.55256 7.32031 1.94886C7.73935 1.33807 8.2081 0.823153 8.72656 0.404118L10.5163 1.56534C10.0973 2.19744 9.74574 2.85795 9.46165 3.54688C9.18466 4.22869 9.04972 4.98153 9.05682 5.8054V8H5.98864Z" fill="white"/>
</svg>
